<mxfile host="app.diagrams.net" modified="2024-03-15T05:44:11.337Z" agent="Mozilla/5.0 (Windows NT 10.0; Win64; x64) AppleWebKit/537.36 (KHTML, like Gecko) Chrome/122.0.0.0 Safari/537.36 Edg/122.0.0.0" etag="3u0YjhEe2ASZ4XW-VPpM" version="22.1.18" type="github">
  <diagram name="Page-1" id="74e2e168-ea6b-b213-b513-2b3c1d86103e">
    <mxGraphModel dx="1688" dy="954" grid="1" gridSize="10" guides="1" tooltips="1" connect="1" arrows="1" fold="1" page="1" pageScale="1" pageWidth="1100" pageHeight="850" background="none" math="0" shadow="0">
      <root>
        <mxCell id="0" />
        <mxCell id="1" parent="0" />
        <mxCell id="901poAid-8j9gdvFEGUS-4" value="第三方平台" style="ellipse;shape=cloud;whiteSpace=wrap;html=1;" vertex="1" parent="1">
          <mxGeometry x="130" y="100" width="100" height="70" as="geometry" />
        </mxCell>
        <mxCell id="901poAid-8j9gdvFEGUS-5" value="esp" style="ellipse;shape=cloud;whiteSpace=wrap;html=1;" vertex="1" parent="1">
          <mxGeometry x="530" y="100" width="100" height="70" as="geometry" />
        </mxCell>
        <mxCell id="901poAid-8j9gdvFEGUS-62" value="" style="endArrow=none;html=1;rounded=0;entryX=0.55;entryY=0.95;entryDx=0;entryDy=0;entryPerimeter=0;" edge="1" parent="1" target="901poAid-8j9gdvFEGUS-4">
          <mxGeometry width="50" height="50" relative="1" as="geometry">
            <mxPoint x="185" y="530" as="sourcePoint" />
            <mxPoint x="290" y="270" as="targetPoint" />
          </mxGeometry>
        </mxCell>
        <mxCell id="901poAid-8j9gdvFEGUS-63" value="admin" style="ellipse;shape=cloud;whiteSpace=wrap;html=1;" vertex="1" parent="1">
          <mxGeometry x="740" y="100" width="100" height="70" as="geometry" />
        </mxCell>
        <mxCell id="901poAid-8j9gdvFEGUS-64" value="gateway" style="ellipse;shape=cloud;whiteSpace=wrap;html=1;" vertex="1" parent="1">
          <mxGeometry x="330" y="100" width="100" height="70" as="geometry" />
        </mxCell>
        <mxCell id="901poAid-8j9gdvFEGUS-65" value="" style="endArrow=none;html=1;rounded=0;entryX=0.55;entryY=0.95;entryDx=0;entryDy=0;entryPerimeter=0;" edge="1" parent="1" target="901poAid-8j9gdvFEGUS-64">
          <mxGeometry width="50" height="50" relative="1" as="geometry">
            <mxPoint x="385" y="530" as="sourcePoint" />
            <mxPoint x="390" y="170" as="targetPoint" />
          </mxGeometry>
        </mxCell>
        <mxCell id="901poAid-8j9gdvFEGUS-66" value="" style="endArrow=none;html=1;rounded=0;entryX=0.494;entryY=0.988;entryDx=0;entryDy=0;entryPerimeter=0;" edge="1" parent="1" target="901poAid-8j9gdvFEGUS-5">
          <mxGeometry width="50" height="50" relative="1" as="geometry">
            <mxPoint x="579.71" y="543" as="sourcePoint" />
            <mxPoint x="579.71" y="180" as="targetPoint" />
          </mxGeometry>
        </mxCell>
        <mxCell id="901poAid-8j9gdvFEGUS-67" value="" style="endArrow=none;html=1;rounded=0;" edge="1" parent="1" target="901poAid-8j9gdvFEGUS-63">
          <mxGeometry width="50" height="50" relative="1" as="geometry">
            <mxPoint x="789.71" y="543.01" as="sourcePoint" />
            <mxPoint x="790" y="170" as="targetPoint" />
            <Array as="points">
              <mxPoint x="790" y="190.01" />
            </Array>
          </mxGeometry>
        </mxCell>
        <mxCell id="901poAid-8j9gdvFEGUS-73" value="" style="endArrow=classic;html=1;rounded=0;" edge="1" parent="1">
          <mxGeometry width="50" height="50" relative="1" as="geometry">
            <mxPoint x="190" y="220" as="sourcePoint" />
            <mxPoint x="380" y="220" as="targetPoint" />
          </mxGeometry>
        </mxCell>
        <mxCell id="901poAid-8j9gdvFEGUS-75" value="1.平台认证" style="text;html=1;align=center;verticalAlign=middle;resizable=0;points=[];autosize=1;strokeColor=none;fillColor=none;" vertex="1" parent="1">
          <mxGeometry x="240" y="190" width="80" height="30" as="geometry" />
        </mxCell>
        <mxCell id="901poAid-8j9gdvFEGUS-76" value="" style="endArrow=classic;html=1;rounded=0;" edge="1" parent="1">
          <mxGeometry width="50" height="50" relative="1" as="geometry">
            <mxPoint x="390" y="250" as="sourcePoint" />
            <mxPoint x="780" y="250" as="targetPoint" />
          </mxGeometry>
        </mxCell>
        <mxCell id="901poAid-8j9gdvFEGUS-77" value="2.根据operatorId查询密钥" style="text;html=1;align=center;verticalAlign=middle;resizable=0;points=[];autosize=1;strokeColor=none;fillColor=none;" vertex="1" parent="1">
          <mxGeometry x="420" y="218" width="160" height="30" as="geometry" />
        </mxCell>
        <mxCell id="901poAid-8j9gdvFEGUS-79" value="" style="endArrow=classic;html=1;rounded=0;" edge="1" parent="1">
          <mxGeometry width="50" height="50" relative="1" as="geometry">
            <mxPoint x="780" y="290" as="sourcePoint" />
            <mxPoint x="390" y="290" as="targetPoint" />
          </mxGeometry>
        </mxCell>
        <mxCell id="901poAid-8j9gdvFEGUS-80" value="3.返回密钥" style="text;html=1;align=center;verticalAlign=middle;resizable=0;points=[];autosize=1;strokeColor=none;fillColor=none;" vertex="1" parent="1">
          <mxGeometry x="450" y="258" width="80" height="30" as="geometry" />
        </mxCell>
        <mxCell id="901poAid-8j9gdvFEGUS-81" value="" style="endArrow=classic;html=1;rounded=0;" edge="1" parent="1">
          <mxGeometry width="50" height="50" relative="1" as="geometry">
            <mxPoint x="380" y="310" as="sourcePoint" />
            <mxPoint x="380" y="350" as="targetPoint" />
            <Array as="points">
              <mxPoint x="310" y="310" />
              <mxPoint x="310" y="350" />
            </Array>
          </mxGeometry>
        </mxCell>
        <mxCell id="901poAid-8j9gdvFEGUS-82" value="4.解密" style="text;html=1;align=center;verticalAlign=middle;resizable=0;points=[];autosize=1;strokeColor=none;fillColor=none;" vertex="1" parent="1">
          <mxGeometry x="300" y="318" width="60" height="30" as="geometry" />
        </mxCell>
        <mxCell id="901poAid-8j9gdvFEGUS-83" value="" style="endArrow=classic;html=1;rounded=0;" edge="1" parent="1">
          <mxGeometry width="50" height="50" relative="1" as="geometry">
            <mxPoint x="390" y="380" as="sourcePoint" />
            <mxPoint x="570" y="380" as="targetPoint" />
          </mxGeometry>
        </mxCell>
        <mxCell id="901poAid-8j9gdvFEGUS-84" value="5.解码数据分发服务" style="text;html=1;align=center;verticalAlign=middle;resizable=0;points=[];autosize=1;strokeColor=none;fillColor=none;" vertex="1" parent="1">
          <mxGeometry x="420" y="348" width="130" height="30" as="geometry" />
        </mxCell>
        <mxCell id="901poAid-8j9gdvFEGUS-177" value="auth" style="ellipse;shape=cloud;whiteSpace=wrap;html=1;" vertex="1" parent="1">
          <mxGeometry x="890" y="100" width="100" height="70" as="geometry" />
        </mxCell>
        <mxCell id="901poAid-8j9gdvFEGUS-178" value="" style="endArrow=none;html=1;rounded=0;" edge="1" parent="1" target="901poAid-8j9gdvFEGUS-177">
          <mxGeometry width="50" height="50" relative="1" as="geometry">
            <mxPoint x="939.71" y="543.01" as="sourcePoint" />
            <mxPoint x="940" y="170" as="targetPoint" />
            <Array as="points">
              <mxPoint x="940" y="190.01" />
            </Array>
          </mxGeometry>
        </mxCell>
        <mxCell id="901poAid-8j9gdvFEGUS-180" value="" style="endArrow=classic;html=1;rounded=0;" edge="1" parent="1">
          <mxGeometry width="50" height="50" relative="1" as="geometry">
            <mxPoint x="580" y="420" as="sourcePoint" />
            <mxPoint x="940" y="420" as="targetPoint" />
          </mxGeometry>
        </mxCell>
        <mxCell id="901poAid-8j9gdvFEGUS-181" value="6.请求认证获取token" style="text;html=1;align=center;verticalAlign=middle;resizable=0;points=[];autosize=1;strokeColor=none;fillColor=none;" vertex="1" parent="1">
          <mxGeometry x="655" y="388" width="130" height="30" as="geometry" />
        </mxCell>
        <mxCell id="901poAid-8j9gdvFEGUS-183" value="" style="endArrow=classic;html=1;rounded=0;" edge="1" parent="1">
          <mxGeometry width="50" height="50" relative="1" as="geometry">
            <mxPoint x="940" y="460" as="sourcePoint" />
            <mxPoint x="580" y="460" as="targetPoint" />
          </mxGeometry>
        </mxCell>
        <mxCell id="901poAid-8j9gdvFEGUS-184" value="7.认证响应" style="text;html=1;align=center;verticalAlign=middle;resizable=0;points=[];autosize=1;strokeColor=none;fillColor=none;" vertex="1" parent="1">
          <mxGeometry x="680" y="438" width="80" height="30" as="geometry" />
        </mxCell>
        <mxCell id="901poAid-8j9gdvFEGUS-185" value="" style="endArrow=classic;html=1;rounded=0;" edge="1" parent="1">
          <mxGeometry width="50" height="50" relative="1" as="geometry">
            <mxPoint x="580" y="480" as="sourcePoint" />
            <mxPoint x="190" y="480" as="targetPoint" />
          </mxGeometry>
        </mxCell>
        <mxCell id="901poAid-8j9gdvFEGUS-187" value="8.认证响应" style="text;html=1;align=center;verticalAlign=middle;resizable=0;points=[];autosize=1;strokeColor=none;fillColor=none;" vertex="1" parent="1">
          <mxGeometry x="415" y="450" width="80" height="30" as="geometry" />
        </mxCell>
      </root>
    </mxGraphModel>
  </diagram>
</mxfile>
